<svg width="51" height="30" viewBox="0 0 51 30" fill="none" xmlns="http://www.w3.org/2000/svg">
<path fill-rule="evenodd" clip-rule="evenodd" d="M17.0371 14.032C17.0476 14.5831 17.2205 15.1188 17.5341 15.5721C17.8477 16.0254 18.2881 16.376 18.8001 16.58C18.5879 17.2192 18.2815 17.8232 17.8911 18.372C17.3431 19.139 16.7751 19.903 15.8801 19.919C14.9851 19.935 14.7181 19.419 13.7121 19.419C12.7061 19.419 12.3921 19.903 11.5601 19.935C10.6961 19.966 10.0381 19.105 9.48614 18.34C8.35814 16.777 7.49614 13.922 8.65414 11.995C8.93567 11.5225 9.33297 11.1296 9.80854 10.8533C10.2841 10.5771 10.8222 10.4265 11.3721 10.416C12.2201 10.401 13.0221 10.963 13.5401 10.963C14.0581 10.963 15.0321 10.286 16.0551 10.386C16.5234 10.4002 16.9824 10.5199 17.3979 10.7362C17.8135 10.9524 18.1749 11.2597 18.4551 11.635C18.0323 11.8795 17.6795 12.2287 17.4308 12.649C17.1821 13.0694 17.0458 13.5467 17.0351 14.035L17.0371 14.032ZM15.3821 9.35402C15.626 9.0824 15.8123 8.76414 15.9297 8.41849C16.0471 8.07284 16.0932 7.70698 16.0651 7.34302C15.3237 7.40857 14.6336 7.74882 14.1301 8.29702C13.8846 8.55553 13.6956 8.86231 13.5751 9.19786C13.4545 9.5334 13.4052 9.89036 13.4301 10.246C13.8011 10.2528 14.1688 10.1761 14.5061 10.0217C14.8435 9.86736 15.1418 9.63916 15.3791 9.35402H15.3821ZM22.0191 8.44202C22.3925 8.38068 22.7675 8.33002 23.1441 8.29002C23.5939 8.24259 24.0459 8.21989 24.4981 8.22202C25.1136 8.20943 25.7272 8.29242 26.3171 8.46802C26.7827 8.60736 27.2117 8.84813 27.5731 9.17302C27.8563 9.44751 28.0806 9.7769 28.2321 10.141C28.3969 10.5515 28.4775 10.9908 28.4691 11.433C28.4811 11.9668 28.3699 12.4962 28.1441 12.98C27.9352 13.4125 27.6321 13.7928 27.2571 14.093C26.8609 14.4033 26.4067 14.6315 25.9211 14.764C25.3715 14.9157 24.8033 14.9901 24.2331 14.985C23.7676 14.9927 23.3026 14.9528 22.8451 14.866V19.759H22.0191V8.44002V8.44202ZM22.8451 14.153C23.0638 14.2125 23.2874 14.252 23.5131 14.271C23.7591 14.2937 24.0225 14.305 24.3031 14.305C25.1787 14.3596 26.0458 14.1071 26.7551 13.591C27.0515 13.3333 27.2842 13.0106 27.4351 12.648C27.586 12.2854 27.6511 11.8929 27.6251 11.501C27.6341 11.1037 27.5563 10.7092 27.3971 10.345C27.2521 10.0254 27.0285 9.74778 26.7471 9.53802C26.446 9.31908 26.107 9.15771 25.7471 9.06202C25.3284 8.95045 24.8965 8.89628 24.4631 8.90102C24.1403 8.89873 23.8175 8.91309 23.4961 8.94402C23.2295 8.97268 23.0128 9.00368 22.8461 9.03702V14.153H22.8451ZM35.0431 17.821C35.0431 18.1497 35.0488 18.4783 35.0601 18.807C35.0711 19.1263 35.1065 19.4442 35.1661 19.758H34.3931L34.2701 18.602H34.2341C34.1183 18.7746 33.9841 18.9341 33.8341 19.078C33.4667 19.4321 33.0168 19.6892 32.5251 19.826C32.2302 19.9078 31.9252 19.9479 31.6191 19.945C31.2491 19.9504 30.8817 19.8825 30.5381 19.745C30.2509 19.6298 29.9907 19.4561 29.7741 19.235C29.5762 19.0278 29.4236 18.7815 29.3261 18.512C29.2283 18.2514 29.1775 17.9754 29.1761 17.697C29.1634 17.2467 29.2736 16.8015 29.4949 16.4091C29.7162 16.0167 30.0402 15.6921 30.4321 15.47C31.602 14.8762 32.9133 14.6173 34.2211 14.722V14.509C34.2183 14.2612 34.1976 14.0139 34.1591 13.769C34.1178 13.491 34.0253 13.2232 33.8861 12.979C33.7338 12.7179 33.5155 12.5013 33.2531 12.351C32.9027 12.1638 32.508 12.0753 32.1111 12.095C31.3814 12.0984 30.6679 12.3108 30.0551 12.707L29.7911 12.107C30.1463 11.8671 30.5381 11.6864 30.9511 11.572C31.3582 11.4635 31.7779 11.4093 32.1991 11.411C32.6927 11.3914 33.1838 11.4905 33.6311 11.7C33.9784 11.8737 34.2773 12.1307 34.5011 12.448C34.7141 12.7574 34.8608 13.1073 34.9321 13.476C35.0064 13.8491 35.0436 14.2286 35.0431 14.609V17.821ZM34.2171 15.391C33.7499 15.3803 33.2824 15.3973 32.8171 15.442C32.3578 15.4819 31.9058 15.5828 31.4731 15.742C31.0845 15.8805 30.7349 16.1107 30.4541 16.413C30.1753 16.7382 30.0321 17.1582 30.0541 17.586C30.0344 17.8234 30.0702 18.0621 30.1587 18.2832C30.2473 18.5044 30.3861 18.7018 30.5641 18.86C30.8852 19.1258 31.2893 19.2705 31.7061 19.269C32.0162 19.2735 32.325 19.2272 32.6201 19.132C33.1056 18.9756 33.5269 18.6653 33.8201 18.248C33.9505 18.0635 34.0542 17.8615 34.1281 17.648C34.1755 17.4874 34.205 17.3221 34.2161 17.155V15.391H34.2171ZM36.6591 11.601L38.8021 16.901C38.9195 17.195 39.0308 17.498 39.1361 17.81C39.2415 18.122 39.3351 18.408 39.4171 18.668H39.4521C39.5341 18.4187 39.6278 18.1384 39.7331 17.827C39.8385 17.5157 39.9555 17.1953 40.0841 16.866L42.0841 11.598H42.9621L40.5201 17.58C40.2961 18.158 40.0645 18.7327 39.8251 19.304C39.6251 19.7787 39.4055 20.2434 39.1661 20.698C38.9646 21.079 38.7385 21.4465 38.4891 21.798C38.2694 22.1055 38.0128 22.3849 37.7251 22.63C37.452 22.876 37.1473 23.0845 36.8191 23.25C36.6378 23.3394 36.4535 23.4217 36.2661 23.497L35.9841 22.834C36.224 22.7283 36.4577 22.6091 36.6841 22.477C36.9592 22.3166 37.2132 22.1224 37.4401 21.899C37.6952 21.6488 37.9302 21.379 38.1431 21.092C38.4184 20.7167 38.6458 20.3086 38.8201 19.877C38.8719 19.7635 38.9076 19.6434 38.9261 19.52C38.9137 19.3954 38.8778 19.2742 38.8201 19.163L35.7791 11.6H36.6591V11.601Z" fill="#FCFCFC"/>
</svg>
