<svg width="72" height="30" viewBox="0 0 72 30" fill="none" xmlns="http://www.w3.org/2000/svg">
<path d="M29.1051 9.44312H25.6971C25.5842 9.44296 25.4749 9.48319 25.3891 9.55655C25.3033 9.62991 25.2465 9.73156 25.2291 9.84312L23.8511 18.5831C23.8447 18.6237 23.8472 18.6651 23.8584 18.7046C23.8696 18.7441 23.8893 18.7807 23.916 18.8119C23.9427 18.8431 23.9758 18.8681 24.0131 18.8852C24.0505 18.9023 24.091 18.9112 24.1321 18.9111H25.7591C25.872 18.9113 25.9812 18.871 26.0671 18.7977C26.1529 18.7243 26.2097 18.6227 26.2271 18.5111L26.5991 16.1541C26.6165 16.0427 26.6731 15.9412 26.7587 15.8679C26.8443 15.7945 26.9533 15.7542 27.0661 15.7541H28.1451C28.6143 15.8063 29.0892 15.7631 29.5413 15.627C29.9934 15.4909 30.4132 15.2648 30.7756 14.9622C31.138 14.6596 31.4354 14.2868 31.65 13.8662C31.8645 13.4457 31.9918 12.9861 32.0241 12.5151C32.1186 12.139 32.1286 11.7467 32.0533 11.3663C31.9781 10.9859 31.8196 10.6269 31.5891 10.3151C31.2618 10.0002 30.8705 9.75951 30.4419 9.60939C30.0133 9.45926 29.5573 9.40323 29.1051 9.44512V9.44312ZM29.4981 12.6351C29.3121 13.8581 28.3771 13.8581 27.4741 13.8581H26.9601L27.3211 11.5741C27.3316 11.5072 27.3657 11.4462 27.4172 11.4022C27.4687 11.3581 27.5343 11.334 27.6021 11.3341H27.8381C28.4531 11.3341 29.0381 11.3341 29.3381 11.6851C29.4336 11.8217 29.4979 11.9776 29.5264 12.1417C29.5549 12.3059 29.5469 12.4744 29.5031 12.6351H29.4981ZM39.2931 12.5941H37.6611C37.5933 12.594 37.5277 12.6181 37.4762 12.6622C37.4247 12.7062 37.3906 12.7672 37.3801 12.8341L37.3081 13.2901L37.1941 13.1251C36.9462 12.8715 36.6436 12.678 36.3094 12.5595C35.9752 12.4409 35.6183 12.4004 35.2661 12.4411C34.366 12.4602 33.5028 12.8021 32.8339 13.4046C32.1649 14.0071 31.7349 14.83 31.6221 15.7231C31.5362 16.1601 31.5461 16.6105 31.6511 17.0433C31.756 17.4761 31.9536 17.881 32.2301 18.2301C32.4884 18.5141 32.8074 18.7362 33.1633 18.8799C33.5193 19.0236 33.903 19.0852 34.2861 19.0601C34.7061 19.0643 35.1226 18.9838 35.5108 18.8233C35.8989 18.6628 36.2507 18.4257 36.5451 18.1261L36.4721 18.5801C36.4656 18.6207 36.4679 18.6621 36.479 18.7017C36.4901 18.7412 36.5096 18.7779 36.5362 18.8092C36.5628 18.8405 36.5959 18.8656 36.6332 18.8828C36.6705 18.9001 36.711 18.9091 36.7521 18.9091H38.2221C38.335 18.9093 38.4442 18.869 38.5301 18.7957C38.6159 18.7223 38.6727 18.6207 38.6901 18.5091L39.5721 12.9231C39.5786 12.8826 39.5762 12.8412 39.5652 12.8017C39.5541 12.7622 39.5346 12.7256 39.5079 12.6944C39.4813 12.6632 39.4482 12.6381 39.4109 12.621C39.3737 12.6039 39.3331 12.595 39.2921 12.5951L39.2931 12.5941ZM37.0181 15.7711C36.9544 16.2108 36.7321 16.6121 36.3929 16.8991C36.0538 17.1861 35.6213 17.3391 35.1771 17.3291C34.9729 17.3505 34.7666 17.3219 34.576 17.2457C34.3854 17.1695 34.2162 17.048 34.0831 16.8917C33.95 16.7354 33.8569 16.5491 33.812 16.3488C33.767 16.1485 33.7715 15.9403 33.8251 15.7421C33.8872 15.3028 34.1071 14.9012 34.4436 14.6121C34.7802 14.323 35.2104 14.1663 35.6541 14.1711C35.857 14.1604 36.0598 14.1947 36.248 14.2717C36.4361 14.3486 36.6048 14.4662 36.7421 14.6161C36.8691 14.7771 36.9596 14.9638 37.0073 15.1632C37.055 15.3627 37.0586 15.5701 37.0181 15.7711ZM47.9871 12.5941H46.3471C46.2697 12.5943 46.1936 12.6133 46.1253 12.6495C46.057 12.6858 45.9986 12.7382 45.9551 12.8021L43.6871 16.1351L42.7281 12.9351C42.6986 12.8374 42.6385 12.7517 42.5565 12.6908C42.4746 12.6299 42.3752 12.5971 42.2731 12.5971H40.6661C40.6208 12.5969 40.5761 12.6075 40.5357 12.6281C40.4954 12.6487 40.4605 12.6787 40.4341 12.7155C40.4077 12.7523 40.3904 12.7949 40.3838 12.8397C40.3772 12.8845 40.3814 12.9303 40.3961 12.9731L42.2031 18.2731L40.5031 20.6731C40.4727 20.7156 40.4547 20.7657 40.451 20.8178C40.4472 20.8699 40.4579 20.9221 40.4819 20.9685C40.5059 21.0149 40.5422 21.0538 40.5869 21.0809C40.6316 21.108 40.6828 21.1223 40.7351 21.1221H42.3731C42.4492 21.1226 42.5244 21.1046 42.5921 21.0698C42.6598 21.035 42.7181 20.9843 42.7621 20.9221L48.2171 13.0481C48.2488 13.0057 48.268 12.9553 48.2725 12.9026C48.2771 12.8499 48.2669 12.797 48.2429 12.7498C48.219 12.7026 48.1824 12.663 48.1372 12.6355C48.092 12.608 48.04 12.5936 47.9871 12.5941Z" fill="#253B80"/>
<path d="M53.4171 9.44193H50.0071C49.8944 9.442 49.7854 9.48235 49.6998 9.55569C49.6141 9.62903 49.5575 9.73054 49.5401 9.84192L48.1621 18.5819C48.1558 18.6224 48.1583 18.6638 48.1694 18.7032C48.1806 18.7426 48.2001 18.7792 48.2267 18.8103C48.2533 18.8415 48.2863 18.8665 48.3235 18.8837C48.3607 18.9009 48.4012 18.9098 48.4421 18.9099H50.1911C50.2701 18.9099 50.3464 18.8817 50.4064 18.8303C50.4663 18.779 50.506 18.7079 50.5181 18.6299L50.9091 16.1529C50.9265 16.0415 50.9831 15.94 51.0688 15.8667C51.1544 15.7933 51.2634 15.753 51.3761 15.7529H52.4541C52.9234 15.8053 53.3984 15.7622 53.8506 15.6261C54.3028 15.4901 54.7228 15.264 55.0853 14.9614C55.4478 14.6588 55.7453 14.2859 55.9599 13.8653C56.1745 13.4447 56.3018 12.985 56.3341 12.5139C56.4287 12.1379 56.4388 11.7455 56.3636 11.3651C56.2884 10.9847 56.1297 10.6257 55.8991 10.3139C55.5721 9.99899 55.181 9.75826 54.7525 9.60813C54.324 9.45799 53.8682 9.40199 53.4161 9.44393L53.4171 9.44193ZM53.8101 12.6339C53.6241 13.8569 52.6901 13.8569 51.7861 13.8569H51.2721L51.6331 11.5729C51.6434 11.5061 51.6773 11.4451 51.7287 11.4011C51.78 11.357 51.8455 11.3329 51.9131 11.3329H52.1491C52.7641 11.3329 53.3491 11.3329 53.6491 11.6839C53.7446 11.8205 53.8089 11.9764 53.8374 12.1406C53.8659 12.3047 53.858 12.4732 53.8141 12.6339H53.8101ZM63.6041 12.5939H61.9721C61.9045 12.5939 61.839 12.618 61.7877 12.6621C61.7363 12.7061 61.7024 12.7671 61.6921 12.8339L61.6171 13.2939L61.5021 13.1289C61.2544 12.8754 60.952 12.682 60.618 12.5634C60.284 12.4448 59.9272 12.4043 59.5751 12.4449C58.6752 12.4642 57.8123 12.8063 57.1435 13.4087C56.4748 14.0112 56.0449 14.8339 55.9321 15.7269C55.8462 16.1638 55.8559 16.6142 55.9607 17.047C56.0655 17.4798 56.2628 17.8847 56.5391 18.2339C56.7975 18.5178 57.1165 18.7399 57.4724 18.8836C57.8283 19.0273 58.2121 19.0889 58.5951 19.0639C59.0151 19.0682 59.4316 18.9876 59.8198 18.8271C60.2079 18.6666 60.5597 18.4295 60.8541 18.1299L60.7811 18.5839C60.7746 18.6246 60.777 18.6661 60.7881 18.7057C60.7992 18.7454 60.8189 18.7821 60.8456 18.8134C60.8723 18.8447 60.9055 18.8698 60.9429 18.887C60.9803 18.9042 61.021 18.913 61.0621 18.9129H62.5321C62.6449 18.9128 62.7539 18.8725 62.8395 18.7992C62.9251 18.7258 62.9817 18.6243 62.9991 18.5129L63.8821 12.9269C63.8883 12.8863 63.8857 12.8448 63.8743 12.8053C63.863 12.7659 63.8433 12.7293 63.8165 12.6981C63.7897 12.667 63.7565 12.642 63.7192 12.6249C63.6818 12.6077 63.6412 12.5989 63.6001 12.5989L63.6041 12.5939ZM61.3291 15.7709C61.2657 16.2107 61.0434 16.6121 60.7042 16.8992C60.365 17.1862 59.9324 17.3391 59.4881 17.3289C59.284 17.3503 59.0777 17.3217 58.887 17.2455C58.6964 17.1693 58.5273 17.0478 58.3941 16.8915C58.261 16.7353 58.168 16.5489 58.123 16.3486C58.078 16.1483 58.0825 15.9401 58.1361 15.7419C58.1985 15.3027 58.4184 14.9012 58.7549 14.6121C59.0914 14.3231 59.5215 14.1663 59.9651 14.1709C60.1681 14.1602 60.3709 14.1946 60.559 14.2715C60.7471 14.3484 60.9158 14.4661 61.0531 14.6159C61.1807 14.7768 61.2716 14.9636 61.3193 15.1633C61.367 15.363 61.3703 15.5708 61.3291 15.7719V15.7709ZM65.5291 9.68193L64.1291 18.5819C64.1228 18.6224 64.1253 18.6638 64.1364 18.7032C64.1475 18.7426 64.1671 18.7792 64.1937 18.8103C64.2203 18.8415 64.2533 18.8665 64.2905 18.8837C64.3277 18.9009 64.3682 18.9098 64.4091 18.9099H65.8171C65.93 18.9101 66.0393 18.8698 66.1251 18.7965C66.2109 18.7231 66.2677 18.6215 66.2851 18.5099L67.6641 9.77093C67.6705 9.73045 67.668 9.68908 67.6568 9.64966C67.6457 9.61024 67.6262 9.57369 67.5996 9.54253C67.573 9.51138 67.5399 9.48634 67.5027 9.46915C67.4656 9.45195 67.4251 9.44301 67.3841 9.44293H65.8091C65.7416 9.44326 65.6764 9.46758 65.6251 9.51153C65.5738 9.55549 65.5398 9.61623 65.5291 9.68292V9.68193Z" fill="#179BD7"/>
<path d="M9.69747 20.609L9.95847 18.953L9.37747 18.94H6.60547L8.53247 6.72403C8.538 6.68666 8.55682 6.65254 8.58548 6.62793C8.61413 6.60332 8.6507 6.58986 8.68847 6.59003H13.3635C13.9312 6.52294 14.5067 6.57357 15.054 6.73873C15.6012 6.9039 16.1086 7.18008 16.5445 7.55003C16.7918 7.82064 16.9671 8.14901 17.0545 8.50503C17.1392 8.94028 17.1392 9.38778 17.0545 9.82303L17.0485 9.86103V10.198L17.3105 10.347C17.5103 10.447 17.6902 10.5825 17.8415 10.747C18.0744 11.0213 18.224 11.3565 18.2725 11.713C18.3329 12.1797 18.3123 12.6534 18.2115 13.113C18.1154 13.6723 17.9236 14.2109 17.6445 14.705C17.4143 15.0982 17.1043 15.4389 16.7345 15.705C16.3634 15.9628 15.9482 16.1502 15.5095 16.258C15.0087 16.3814 14.4942 16.4409 13.9785 16.435H13.6115C13.3507 16.4347 13.0984 16.5275 12.9 16.6967C12.7016 16.8659 12.5702 17.1005 12.5295 17.358L12.5025 17.507L12.0445 20.422L12.0235 20.529C12.0221 20.5527 12.0117 20.5749 11.9945 20.591C11.9809 20.602 11.9639 20.608 11.9465 20.608H9.69747V20.609Z" fill="#253B80"/>
<path d="M17.5624 9.8999C17.5484 9.98924 17.5324 10.0806 17.5144 10.1739C16.8984 13.3389 14.7884 14.4319 12.0954 14.4319H10.7244C10.5655 14.4319 10.4118 14.4888 10.2912 14.5922C10.1705 14.6957 10.0908 14.8388 10.0664 14.9959L9.36645 19.4489L9.16645 20.7109C9.1585 20.761 9.1615 20.8122 9.17522 20.861C9.18895 20.9097 9.21308 20.955 9.24596 20.9936C9.27884 21.0322 9.31968 21.0632 9.36569 21.0844C9.41169 21.1057 9.46176 21.1168 9.51245 21.1169H11.9434C12.0827 21.117 12.2174 21.0674 12.3234 20.977C12.4293 20.8866 12.4995 20.7614 12.5214 20.6239L12.5454 20.4999L13.0034 17.5939L13.0324 17.4349C13.0541 17.2972 13.1243 17.1718 13.2302 17.0812C13.3362 16.9906 13.471 16.9409 13.6104 16.9409H13.9724C16.3294 16.9409 18.1724 15.9839 18.7134 13.2149C18.8556 12.7425 18.8856 12.2434 18.8011 11.7573C18.7165 11.2712 18.5198 10.8116 18.2264 10.4149C18.0374 10.2049 17.8118 10.031 17.5604 9.9019L17.5624 9.8999Z" fill="#179BD7"/>
<path d="M16.9174 9.64306C16.7204 9.58612 16.52 9.5417 16.3174 9.51006C15.9174 9.44866 15.5131 9.41923 15.1084 9.42206H11.4444C11.305 9.42183 11.17 9.47151 11.064 9.56211C10.958 9.65272 10.8879 9.77827 10.8664 9.91606L10.0874 14.8531L10.0654 14.9971C10.0898 14.84 10.1695 14.6968 10.2901 14.5934C10.4108 14.49 10.5645 14.4331 10.7234 14.4331H12.0944C14.7884 14.4331 16.8944 13.3391 17.5134 10.1751C17.5314 10.0811 17.5474 9.99006 17.5614 9.90106C17.3987 9.81568 17.2291 9.74409 17.0544 9.68706L16.9164 9.64406L16.9174 9.64306Z" fill="#222D65"/>
<path d="M10.8673 9.91594C10.8886 9.77806 10.9587 9.65239 11.0647 9.56175C11.1708 9.4711 11.3058 9.4215 11.4453 9.42194H15.1093C15.514 9.41911 15.9183 9.44853 16.3183 9.50994C16.5685 9.5493 16.8153 9.60814 17.0563 9.68594C17.2309 9.74319 17.4005 9.81476 17.5633 9.89994C17.6815 9.43408 17.6855 8.94661 17.5751 8.47885C17.4648 8.0111 17.2432 7.57685 16.9293 7.21294C16.4461 6.78692 15.8795 6.4661 15.2656 6.27088C14.6517 6.07565 14.0039 6.01028 13.3633 6.07894H8.68833C8.52902 6.07894 8.37495 6.13588 8.25393 6.23948C8.13291 6.34309 8.05289 6.48653 8.02833 6.64394L6.08133 18.9849C6.07198 19.0426 6.07537 19.1015 6.09124 19.1577C6.10711 19.2139 6.13509 19.2659 6.17321 19.3101C6.21133 19.3544 6.25866 19.3897 6.31189 19.4137C6.36512 19.4377 6.42295 19.4497 6.48133 19.4489H9.36333L10.0883 14.8489L10.8673 9.91194V9.91594Z" fill="#253B80"/>
</svg>
