<svg xmlns="http://www.w3.org/2000/svg">
    <symbol id="icon-follower" viewBox="0 0 33 32">
        <path
            d="M19.111 18.872c4.208 0 7.619-3.429 7.619-7.658s-3.411-7.658-7.619-7.658c-4.208 0-7.619 3.429-7.619 7.658s3.411 7.658 7.619 7.658z">
        </path>
        <path
            d="M5.778 28.445v-2.188c0-3.021 2.111-5.47 4.716-5.47h17.235c2.604 0 4.716 2.455 4.716 5.47v2.188h-26.667z">
        </path>
        <path d="M8.332 16.532h-2.704v2.64h-2.464v-2.64h-2.72v-2.336h2.72v-2.64h2.464v2.64h2.704v2.336z">
        </path>
    </symbol>
    <symbol id="icon-menu" viewBox="0 0 64 32">
        <path
            d="M0.968 2.667v-2.667h63.032v5.333h-63.032v-2.667zM0.968 29.333c0-1.472-2.176-2.667 0-2.667h63.032v5.333h-63.032c-2.176 0 0-1.195 0-2.667z">
        </path>
    </symbol>
    <symbol id="icon-star" viewBox="0 0 32 32">
        <path stroke="#fcfcfc" stroke-linejoin="miter" stroke-linecap="butt" stroke-miterlimit="4" stroke-width="1.4545"
            d="M16.623 2.442l3.703 6.143c0.305 0.506 0.802 0.866 1.377 0.999l6.992 1.617c0.534 0.124 0.745 0.772 0.385 1.186l-4.703 5.408c-0.388 0.446-0.578 1.031-0.527 1.621l0.62 7.137c0.047 0.546-0.503 0.946-1.008 0.733l-6.613-2.797c-0.543-0.23-1.156-0.23-1.7 0l-6.613 2.797c-0.505 0.213-1.055-0.187-1.008-0.733l0.62-7.137c0.051-0.589-0.139-1.174-0.527-1.621l-4.703-5.408c-0.36-0.414-0.149-1.062 0.385-1.186l6.992-1.617c0.575-0.133 1.072-0.494 1.377-0.999l3.703-6.143c0.283-0.469 0.963-0.469 1.246 0z">
        </path>
    </symbol>
</svg>