<svg width="27" height="25" viewBox="0 0 27 25" fill="none" xmlns="http://www.w3.org/2000/svg">
<path d="M10.6348 2.23076C11.5084 -0.583482 15.4916 -0.583483 16.3652 2.23075L17.2941 5.22362C17.6881 6.49281 18.8701 7.35157 20.1989 7.33404L23.3323 7.29269C26.2787 7.25381 27.5096 11.0421 25.1031 12.7425L22.5438 14.5509C21.4584 15.3177 21.0069 16.7073 21.4342 17.9656L22.4419 20.9329C23.3893 23.7231 20.1668 26.0644 17.8059 24.3011L15.2952 22.4259C14.2305 21.6306 12.7695 21.6306 11.7048 22.4259L9.19406 24.3011C6.83321 26.0644 3.61067 23.7231 4.55815 20.9329L5.56576 17.9656C5.99306 16.7073 5.54158 15.3177 4.45625 14.5509L1.89693 12.7425C-0.509638 11.0421 0.72126 7.2538 3.66769 7.29269L6.80114 7.33404C8.12995 7.35157 9.31194 6.49281 9.70588 5.22362L10.6348 2.23076Z" fill="url(#paint0_linear_201_3839)"/>
<defs>
<linearGradient id="paint0_linear_201_3839" x1="-7" y1="-7" x2="42.4248" y2="15.463" gradientUnits="userSpaceOnUse">
<stop stop-color="#ED017F"/>
<stop offset="1" stop-color="#7F33B5"/>
</linearGradient>
</defs>
</svg>
