<svg width="32" height="32" viewBox="0 0 32 32" fill="none" xmlns="http://www.w3.org/2000/svg">
<path d="M15.9999 27.9998C10.1089 27.9998 5.33325 23.2242 5.33325 17.3332C5.33325 11.4421 10.1089 6.6665 15.9999 6.6665C21.891 6.6665 26.6666 11.4421 26.6666 17.3332C26.66 23.2215 21.8882 27.9932 15.9999 27.9998ZM15.9999 9.33317C11.5816 9.33317 7.99992 12.9149 7.99992 17.3332C7.99992 21.7514 11.5816 25.3332 15.9999 25.3332C20.4182 25.3332 23.9999 21.7514 23.9999 17.3332C23.9948 12.917 20.4161 9.33831 15.9999 9.33317ZM17.3333 18.6665H14.6666V11.9998H17.3333V18.6665ZM25.7239 10.2758L23.0573 7.60917L24.9426 5.72384L27.6093 8.3905L25.7253 10.2745L25.7239 10.2758ZM19.9999 5.33317H11.9999V2.6665H19.9999V5.33317Z" fill="url(#paint0_linear_201_3979)"/>
<defs>
<linearGradient id="paint0_linear_201_3979" x1="5.33325" y1="2.6665" x2="33.2714" y2="13.8317" gradientUnits="userSpaceOnUse">
<stop stop-color="#ED017F"/>
<stop offset="1" stop-color="#7F33B5"/>
</linearGradient>
</defs>
</svg>
