<svg width="51" height="30" viewBox="0 0 51 30" fill="none" xmlns="http://www.w3.org/2000/svg">
<path d="M10.3935 13.9759L11.5653 15.2509H9.22867L10.3925 13.9759H10.3935ZM34.7424 14.0289H30.2276V14.5909H34.6701V15.4329H30.2426V16.0589H34.7574V16.5589L37.9037 15.0339L34.7564 13.4439L34.7474 14.0269L34.7424 14.0289ZM13.4415 12.4439H19.4933L20.8378 13.7589L22.0818 12.4399H37.7894L39.4227 13.2479L41.1113 12.4399H48.3269L42.9964 15.0569L48.2727 17.6569H40.9507L39.3174 16.8489L37.6118 17.6569H11.9968L11.2493 16.8489H9.53869L8.78823 17.6569H2.86279L7.84213 12.4399H13.0372H13.4385L13.4415 12.4439ZM26.5635 13.1759H23.1724L20.901 15.5759L18.4389 13.1759H15.0728V16.4439L11.9556 13.1759H8.93371L5.32186 16.9219H7.6806L8.42905 16.1129H12.3569L13.1054 16.9219H17.2259V14.2479L19.8816 16.9259H21.6875L24.3232 14.2559V16.9269H26.5304L26.5675 13.1749L26.5635 13.1759ZM40.7099 15.0569L44.5455 13.1759H41.7865L39.3605 14.3489L37.0158 13.1759H28.0865V16.9259H36.8874L39.3324 15.7449L41.6761 16.9259H44.5174L40.7119 15.0569H40.7099Z" fill="#0061C2"/>
</svg>
