<svg width="32" height="32" viewBox="0 0 32 32" fill="none" xmlns="http://www.w3.org/2000/svg">
<g clip-path="url(#clip0_201_3971)">
<path d="M25.3333 26.6665H7.99997C3.83246 26.669 0.36116 23.4716 0.0217864 19.318C-0.317587 15.1643 2.58867 11.4459 6.7013 10.7718C8.59425 7.41567 12.1468 5.33784 16 5.33308C18.4027 5.324 20.7366 6.13489 22.616 7.63183C24.4614 9.09564 25.7734 11.1265 26.3493 13.4105C29.7945 13.9399 32.2504 17.0339 31.984 20.5093C31.7176 23.9847 28.8189 26.6683 25.3333 26.6665ZM16 7.99981C13.1089 8.00323 10.4435 9.56263 9.02397 12.0812L8.39997 13.1998L7.13463 13.4065C4.40168 13.8644 2.47465 16.3389 2.70025 19.1007C2.92586 21.8626 5.22894 23.9916 7.99997 23.9998H25.3333C27.4247 24.002 29.1648 22.3926 29.3256 20.3074C29.4864 18.2221 28.0137 16.365 25.9466 16.0465L24.192 15.7798L23.7626 14.0572C22.8763 10.4929 19.6728 7.9931 16 7.99981ZM14.0373 22.2798L9.37064 17.6132L11.2506 15.7332L14.0373 18.5198L20.1706 12.3865L22.0506 14.2665L14.0386 22.2785L14.0373 22.2798Z" fill="url(#paint0_linear_201_3971)"/>
</g>
<defs>
<linearGradient id="paint0_linear_201_3971" x1="-0.00512695" y1="5.33301" x2="31.7739" y2="27.0036" gradientUnits="userSpaceOnUse">
<stop stop-color="#ED017F"/>
<stop offset="1" stop-color="#7F33B5"/>
</linearGradient>
<clipPath id="clip0_201_3971">
<rect width="32" height="32" fill="white"/>
</clipPath>
</defs>
</svg>
