<svg width="51" height="30" viewBox="0 0 51 30" fill="none" xmlns="http://www.w3.org/2000/svg">
<path d="M24.423 10.109V13.609H26.595C26.8334 13.6162 27.0706 13.5737 27.2916 13.4844C27.5126 13.3951 27.7127 13.2607 27.879 13.09C28.0444 12.9313 28.1759 12.7409 28.2657 12.5301C28.3556 12.3193 28.4019 12.0926 28.4019 11.8635C28.4019 11.6343 28.3556 11.4076 28.2657 11.1968C28.1759 10.986 28.0444 10.7956 27.879 10.637C27.7147 10.4627 27.5153 10.3251 27.294 10.2332C27.0727 10.1414 26.8345 10.0973 26.595 10.104H24.423V10.109ZM24.423 14.847V18.912H23.123V8.87596H26.564C26.9743 8.86717 27.3823 8.9394 27.7646 9.08852C28.1469 9.23763 28.4961 9.46071 28.792 9.74496C29.0855 10.0154 29.3196 10.3437 29.4798 10.7092C29.64 11.0747 29.7227 11.4694 29.7227 11.8685C29.7227 12.2675 29.64 12.6622 29.4798 13.0277C29.3196 13.3932 29.0855 13.7215 28.792 13.992C28.495 14.2738 28.1454 14.4943 27.7631 14.641C27.3808 14.7878 26.9734 14.8577 26.564 14.847H24.423ZM31.037 16.809C31.0364 16.9734 31.0752 17.1356 31.1502 17.2819C31.2252 17.4283 31.3342 17.5545 31.468 17.65C31.7555 17.8743 32.1114 17.9929 32.476 17.986C33.0224 17.9861 33.5468 17.7704 33.935 17.386C34.1365 17.2094 34.2979 16.9918 34.4084 16.7477C34.519 16.5037 34.5761 16.2389 34.576 15.971C34.0818 15.6262 33.4856 15.4584 32.884 15.495C32.4153 15.4778 31.9532 15.6106 31.565 15.874C31.4053 15.9734 31.2733 16.1114 31.181 16.2754C31.0887 16.4393 31.0392 16.6238 31.037 16.812V16.809ZM32.715 11.822C33.542 11.7762 34.3549 12.0496 34.986 12.586C35.2676 12.8555 35.4877 13.1827 35.6311 13.5451C35.7745 13.9076 35.838 14.2967 35.817 14.686V18.92H34.577V17.964H34.521C34.2961 18.3287 33.9804 18.629 33.6048 18.8355C33.2293 19.0419 32.8066 19.1475 32.378 19.142C31.6784 19.1629 30.9962 18.921 30.466 18.464C30.2206 18.2587 30.0243 18.0011 29.8914 17.71C29.7585 17.419 29.6924 17.1019 29.698 16.782C29.6862 16.4542 29.7538 16.1285 29.895 15.8325C30.0362 15.5365 30.2469 15.279 30.509 15.082C31.1387 14.6339 31.9012 14.4116 32.673 14.451C33.332 14.4262 33.9862 14.5711 34.573 14.872V14.572C34.5743 14.3537 34.5269 14.1379 34.4342 13.9404C34.3414 13.7428 34.2058 13.5684 34.037 13.43C33.6923 13.1218 33.2444 12.9544 32.782 12.961C32.4413 12.953 32.1041 13.0327 31.803 13.1924C31.5018 13.3521 31.2467 13.5864 31.062 13.873L29.922 13.164C30.2349 12.7208 30.6555 12.3647 31.1442 12.1292C31.6329 11.8937 32.1735 11.7866 32.715 11.818V11.822ZM42.939 12.042L38.609 21.942H37.269L38.877 18.479L36.029 12.044H37.439L39.498 16.978H39.526L41.526 12.044L42.939 12.042Z" fill="#5F6368"/>
<path d="M19.1809 13.9718C19.1811 13.5787 19.1477 13.1863 19.0809 12.7988H13.6089V15.0158H16.7429C16.6784 15.3712 16.5424 15.7099 16.3432 16.0112C16.144 16.3125 15.8856 16.5703 15.5839 16.7688V18.2158H17.4539C18.0232 17.6691 18.4711 17.0087 18.7685 16.2775C19.0658 15.5463 19.206 14.7607 19.1799 13.9718" fill="#4285F4"/>
<path d="M13.6088 19.6078C15.0206 19.6479 16.3949 19.1504 17.4538 18.2158L15.5848 16.7728C14.996 17.1491 14.3084 17.3412 13.6098 17.3248C12.8864 17.3173 12.1835 17.0837 11.5994 16.6567C11.0154 16.2298 10.5795 15.6309 10.3528 14.9438H8.4248V16.4298C8.91067 17.387 9.65237 18.1907 10.5675 18.7518C11.4826 19.3128 12.5354 19.6091 13.6088 19.6078Z" fill="#34A853"/>
<path d="M10.352 14.944C10.1099 14.2279 10.1099 13.4521 10.352 12.736V11.251H8.42502C8.0188 12.0536 7.80713 12.9405 7.80713 13.84C7.80713 14.7395 8.0188 15.6264 8.42502 16.429L10.352 14.943V14.944Z" fill="#FABB05"/>
<path d="M13.6088 10.3549C14.4355 10.3411 15.2347 10.652 15.8348 11.2209L17.4908 9.57291C16.4375 8.5928 15.0474 8.05567 13.6088 8.07291C12.5354 8.07165 11.4826 8.36799 10.5675 8.92901C9.65237 9.49002 8.91067 10.2938 8.4248 11.2509L10.3518 12.7369C10.5785 12.0499 11.0144 11.451 11.5984 11.0241C12.1825 10.5971 12.8854 10.3635 13.6088 10.3559" fill="#E94235"/>
</svg>
