<svg width="32" height="32" viewBox="0 0 32 32" fill="none" xmlns="http://www.w3.org/2000/svg">
<path d="M26.6267 28.5131L22.1521 24.0384C20.2216 24.9174 18.1211 25.3603 16.0001 25.3358C13.8133 25.363 11.649 24.891 9.67208 23.9558C8.13966 23.2081 6.7636 22.1755 5.61741 20.9131C4.40074 19.6089 3.44448 18.0842 2.80008 16.4211L2.66675 16.0024L2.80675 15.5811C3.77049 13.1228 5.39242 10.9773 7.49475 9.37977L4.00008 5.88511L5.88408 4.00244L28.5094 26.6278L26.6294 28.5131H26.6267ZM9.38142 11.2678C7.67731 12.4623 6.33162 14.0994 5.48941 16.0024C7.29531 20.169 11.4612 22.8113 16.0001 22.6691C17.3999 22.6806 18.7915 22.4552 20.1161 22.0024L17.7161 19.6024C17.1819 19.8643 16.595 20.0011 16.0001 20.0024C13.7967 19.9886 12.0139 18.2058 12.0001 16.0024C12.0007 15.4061 12.1375 14.8178 12.4001 14.2824L9.38142 11.2678ZM26.4694 20.8158L24.6134 18.9611C25.3943 18.0783 26.0342 17.0804 26.5107 16.0024C24.7072 11.8339 20.5397 9.19055 16.0001 9.33577C15.6707 9.33577 15.3401 9.34777 15.0201 9.37044L12.6667 7.01444C13.7623 6.78009 14.8798 6.66431 16.0001 6.66911C18.1869 6.64197 20.3511 7.11394 22.3281 8.04911C23.8605 8.79675 25.2366 9.82937 26.3827 11.0918C27.5989 12.3944 28.5551 13.9172 29.2001 15.5784L29.3334 16.0024L29.1934 16.4238C28.5692 18.0479 27.6456 19.5404 26.4707 20.8238L26.4694 20.8158Z" fill="url(#paint0_linear_201_3975)"/>
<defs>
<linearGradient id="paint0_linear_201_3975" x1="2.66675" y1="4.00244" x2="33.8331" y2="19.4131" gradientUnits="userSpaceOnUse">
<stop stop-color="#ED017F"/>
<stop offset="1" stop-color="#7F33B5"/>
</linearGradient>
</defs>
</svg>
