<svg width="51" height="30" viewBox="0 0 51 30" fill="none" xmlns="http://www.w3.org/2000/svg">
<path d="M22.0771 8.4541H29.4571V21.9801H22.0771V8.4541Z" fill="#FF5F00"/>
<path d="M22.5491 15.2181C22.5446 13.9214 22.8317 12.6401 23.3892 11.4693C23.9468 10.2985 24.7605 9.268 25.7701 8.45415C24.1115 7.11898 22.004 6.47084 19.8818 6.64331C17.7596 6.81577 15.7843 7.79569 14.3631 9.38115C12.9225 10.9834 12.1255 13.062 12.1255 15.2167C12.1255 17.3713 12.9225 19.4499 14.3631 21.0521C15.7842 22.6378 17.7595 23.6179 19.8818 23.7904C22.0041 23.9628 24.1116 23.3146 25.7701 21.9791C24.761 21.1655 23.9476 20.1355 23.3901 18.9653C22.8326 17.795 22.5452 16.5144 22.5491 15.2181Z" fill="#EB001B"/>
<path d="M39.4141 15.2181C39.4207 16.8217 38.9799 18.3954 38.1411 19.7622C37.3023 21.129 36.0989 22.2347 34.6661 22.9551C33.2446 23.6603 31.6508 23.9433 30.0734 23.7705C28.496 23.5977 27.0012 22.9763 25.7661 21.9801C26.7727 21.1636 27.5843 20.1328 28.1418 18.9628C28.6993 17.7928 28.9886 16.5131 28.9886 15.2171C28.9886 13.921 28.6993 12.6413 28.1418 11.4713C27.5843 10.3013 26.7727 9.27049 25.7661 8.45406C27.0012 7.45778 28.496 6.83643 30.0734 6.66362C31.6508 6.49082 33.2446 6.77381 34.6661 7.47906C36.0991 8.19912 37.3027 9.30478 38.1415 10.6716C38.9803 12.0385 39.4211 13.6124 39.4141 15.2161V15.2181ZM38.6081 20.6681V20.2901H38.7181V20.2121H38.4391V20.2901H38.5591V20.6681H38.6091H38.6081ZM39.1491 20.6681V20.2121H39.0641L38.9641 20.5371L38.8641 20.2121H38.7891V20.6671H38.8501V20.3251L38.9411 20.6251H39.0041L39.0961 20.3251V20.6701L39.1491 20.6681Z" fill="#F79E1B"/>
</svg>
