<svg width="24" height="24" viewBox="0 0 24 24" fill="none" xmlns="http://www.w3.org/2000/svg">
<path d="M11 1C11 0.447716 11.4477 0 12 0C12.5523 0 13 0.447715 13 1V23C13 23.5523 12.5523 24 12 24C11.4477 24 11 23.5523 11 23V1Z" fill="url(#paint0_linear_117_4084)"/>
<path d="M1 13C0.447716 13 0 12.5523 0 12C0 11.4477 0.447715 11 1 11H23C23.5523 11 24 11.4477 24 12C24 12.5523 23.5523 13 23 13H1Z" fill="url(#paint1_linear_117_4084)"/>
<defs>
<linearGradient id="paint0_linear_117_4084" x1="0" y1="0" x2="28.9316" y2="13.1491" gradientUnits="userSpaceOnUse">
<stop stop-color="#ED017F"/>
<stop offset="1" stop-color="#7F33B5"/>
</linearGradient>
<linearGradient id="paint1_linear_117_4084" x1="0" y1="0" x2="28.9316" y2="13.1491" gradientUnits="userSpaceOnUse">
<stop stop-color="#ED017F"/>
<stop offset="1" stop-color="#7F33B5"/>
</linearGradient>
</defs>
</svg>
