<svg width="47" height="30" viewBox="0 0 47 30" fill="none" xmlns="http://www.w3.org/2000/svg">
<path d="M38.2246 19.9229L37.6313 19.9449H36.3397C36.218 19.9449 36.22 19.8998 36.1963 19.7834L35.9866 18.6356C35.9589 18.4891 35.9095 18.447 35.7651 18.447C34.8127 18.454 33.8593 18.455 32.907 18.447C32.8449 18.4377 32.7817 18.4536 32.731 18.4911C32.6803 18.5286 32.6462 18.5848 32.636 18.6477C32.5094 19.0309 32.3736 19.4108 32.2285 19.7874L32.0644 19.9379C31.2425 19.9449 30.4177 19.9379 29.5919 19.9379L29.5375 19.9158L29.768 19.3379L33.2838 10.8258C33.362 10.5634 33.5295 10.3376 33.7564 10.1887C33.9833 10.0397 34.2549 9.97714 34.5229 10.0122H36.3664C36.5147 10.0122 36.577 10.0242 36.6097 10.1837C37.1602 12.884 37.7143 15.5839 38.2721 18.2835L38.3789 19.7884L38.2197 19.8888V19.9269L38.2246 19.9229ZM34.7998 12.8726L34.7553 12.9338C34.2502 14.1523 33.813 15.3987 33.4459 16.6671H35.5534C35.3003 15.0006 35.051 14.0886 34.8008 12.8716L34.7998 12.8726ZM7.00977 10.0011H7.39744L11.4928 10.0081C11.7814 9.98457 12.0682 10.0718 12.2964 10.2526C12.5247 10.4334 12.6776 10.6946 12.725 10.9844C13.0698 12.801 13.4127 14.6194 13.7536 16.4394L13.8188 16.7263L13.9128 16.5467C14.7425 14.4187 15.5723 12.1432 16.3971 10.0132C16.4495 9.87972 16.5118 10.0132 16.6532 10.0132H19.1177L19.0436 10.2048L15.2855 19.3279C15.2004 19.5346 15.151 19.8115 14.9888 19.9158C14.8266 20.0202 14.5714 19.9439 14.3558 19.9459H12.549C12.3848 19.9459 12.3255 19.8958 12.2859 19.7453C11.6381 17.1678 10.9726 14.5963 10.3317 12.0178C10.2685 11.7902 10.1535 11.5809 9.99596 11.4066C9.83845 11.2324 9.64283 11.0981 9.42483 11.0145C8.65514 10.6634 7.84308 10.4172 7.00977 10.2821V10.0011ZM22.412 19.5777L22.8719 17.3975L23.1508 17.528C23.942 17.9205 24.8239 18.0863 25.7013 18.0075C25.9999 17.9759 26.2898 17.887 26.5558 17.7457C26.6782 17.6929 26.7842 17.6075 26.8626 17.4985C26.941 17.3896 26.9889 17.2611 27.0012 17.1268C27.0134 16.9924 26.9896 16.8572 26.9323 16.7355C26.8749 16.6138 26.7862 16.5101 26.6754 16.4354C26.3839 16.2227 26.0793 16.029 25.7636 15.8554C25.2944 15.595 24.8407 15.3069 24.4048 14.9926C24.1216 14.7623 23.8903 14.4731 23.7264 14.1446C23.5625 13.816 23.4698 13.4557 23.4545 13.0878C23.4392 12.7199 23.5018 12.353 23.6378 12.0116C23.7739 11.6703 23.9805 11.3624 24.2436 11.1088C24.4687 10.7777 24.7685 10.5059 25.118 10.316C25.4676 10.1261 25.8567 10.0237 26.2532 10.0172C27.5015 9.92651 28.756 9.98917 29.9895 10.2038L30.1082 10.257L29.6641 12.3489C29.1048 12.0753 28.4972 11.9184 27.877 11.8873C27.5185 11.8816 27.1604 11.9153 26.809 11.9877C26.6152 12.0422 26.4382 12.1458 26.2947 12.2887C26.2295 12.3408 26.1765 12.4069 26.1395 12.4823C26.1026 12.5576 26.0826 12.6404 26.081 12.7246C26.0794 12.8088 26.0962 12.8923 26.1302 12.969C26.1643 13.0458 26.2147 13.114 26.2779 13.1686C26.4645 13.3444 26.6706 13.4976 26.892 13.6251L28.2766 14.4187C28.61 14.593 28.901 14.8405 29.1284 15.1432C29.3557 15.4458 29.5137 15.7961 29.5909 16.1685C29.6985 16.7066 29.6561 17.2646 29.4687 17.7797C29.2813 18.2948 28.9562 18.7469 28.5298 19.0851C28.0509 19.5684 27.4219 19.8687 26.7496 19.9349C25.3837 19.9976 24.0152 19.9064 22.6691 19.663L22.415 19.5627L22.412 19.5777ZM22.7601 10.0011C22.4773 11.6676 22.2013 12.6479 21.9274 13.9562C21.5249 15.8675 21.1194 17.7808 20.7248 19.6941C20.6833 19.8948 20.6131 19.9841 20.4093 19.977C19.7289 19.964 19.0455 20.0001 18.3671 20.0001H18.1317C18.2802 19.5304 18.3796 19.0461 18.4284 18.5554C19.0119 15.7882 19.5944 13.005 20.1749 10.2389C20.2125 10.0553 20.2738 10.0021 20.4637 10.0051C21.1422 10.0222 21.8236 10.0051 22.504 10.0051H22.7581L22.7601 10.0011Z" fill="#142688"/>
</svg>
